<!--?xml version="1.0" standalone="no"?--> <svg id="sw-js-blob-svg" viewBox="0 0 100 100"
    xmlns="http://www.w3.org/2000/svg">
    <defs>
        <linearGradient id="sw-gradient" x1="0" x2="1" y1="1" y2="0">
            <stop id="stop1" stop-color="#e0e0e0" offset="0%"></stop>
            <stop id="stop2" stop-color="rgba(226, 226, 226, 1)" offset="100%"></stop>
        </linearGradient>
    </defs>
    <path fill="url(#sw-gradient)"
        d="M18.8,-31.5C22.6,-26.7,22.7,-18.6,22,-12.4C21.3,-6.1,19.7,-1.8,20.1,3.6C20.5,9,22.8,15.4,21.3,20.3C19.9,25.2,14.6,28.6,8.5,31.6C2.4,34.6,-4.7,37.2,-11.2,36.2C-17.8,35.2,-24,30.6,-29.9,25.2C-35.9,19.7,-41.6,13.2,-42.6,6.2C-43.6,-0.9,-39.7,-8.7,-34.1,-13.4C-28.6,-18.1,-21.2,-19.9,-15.3,-23.7C-9.3,-27.4,-4.6,-33.2,1.4,-35.4C7.5,-37.6,14.9,-36.2,18.8,-31.5Z"
        width="100%" height="100%" transform="translate(50 50)" stroke-width="0" style="transition: all 0.3s ease 0s;">
    </path>
</svg>