<!--?xml version="1.0" standalone="no"?--> <svg id="sw-js-blob-svg" viewBox="0 0 100 100"
    xmlns="http://www.w3.org/2000/svg" version="1.1">
    <defs>
        <linearGradient id="sw-gradient" x1="0" x2="1" y1="1" y2="0">
            <stop id="stop1" stop-color="#5a95b4" offset="0%"></stop>
            <stop id="stop2" stop-color="#ee95f7" offset="100%"></stop>
        </linearGradient>
    </defs>
    <path fill="url(#sw-gradient)"
        d="M26.4,-33C31.3,-27.2,30.6,-16.3,28.8,-7.8C27,0.6,24.2,6.5,21.7,14.1C19.2,21.7,17,31.1,11.9,33.2C6.8,35.3,-1.2,30.2,-10.7,27.6C-20.2,24.9,-31.3,24.7,-37,19.2C-42.7,13.8,-43,3.1,-38.3,-3.9C-33.7,-10.9,-24.1,-14.1,-16.9,-19.4C-9.7,-24.7,-4.8,-32.1,2.9,-35.6C10.7,-39.1,21.4,-38.7,26.4,-33Z"
        width="100%" height="100%" transform="translate(50 50)" stroke-width="0" style="transition: all 0.3s ease 0s;"
        stroke="url(#sw-gradient)"></path>
</svg>